<svg xmlns="http://www.w3.org/2000/svg" viewBox="0 0 500 500"><g id="freepik--Shadow--inject-147"><ellipse id="freepik--path--inject-147" cx="250" cy="416.24" rx="193.89" ry="11.32" style="fill:#f5f5f5"></ellipse></g><g id="freepik--Goal--inject-147"><rect x="391.73" y="284.62" width="1" height="8.12" transform="translate(-67.41 127.71) rotate(-17.05)" style="fill:#68A5DA"></rect><rect x="384.89" y="254.29" width="1" height="24.16" transform="translate(-61.17 124.72) rotate(-17.05)" style="fill:#68A5DA"></rect><path d="M349,158H313.43L239.28,399.73A12.6,12.6,0,0,0,251.33,416H411.11a12.6,12.6,0,0,0,12.05-16.29Z" style="fill:#68A5DA"></path><path d="M349,158H331.22L308.67,416H411.11a12.6,12.6,0,0,0,12.05-16.29Z" style="fill:#263238;opacity:0.2"></path><path d="M349,158h-8.35l25.45,258h45a12.6,12.6,0,0,0,12.05-16.29Z" style="fill:#263238;opacity:0.2"></path><path d="M313.43,158H322L260.67,416h-9.34a12.6,12.6,0,0,1-12.05-16.29Z" style="fill:#fff;opacity:0.2"></path><path d="M330.94,148.39h0a23.6,23.6,0,0,1,22.8,17.47l11.48,42.7-3.05,13.5L350.49,211l-11.07,25.42-10.08-17.67-12.52,17.67-5.44-26.5L300,225l-2.7-17.44L308.1,166A23.6,23.6,0,0,1,330.94,148.39Z" style="fill:#68A5DA"></path><path d="M330.94,148.39h0a23.6,23.6,0,0,1,22.8,17.47l11.48,42.7-3.05,13.5L350.49,211l-11.07,25.42-10.08-17.67-12.52,17.67-5.44-26.5L300,225l-2.7-17.44L308.1,166A23.6,23.6,0,0,1,330.94,148.39Z" style="fill:#fff;opacity:0.7000000000000001"></path><path d="M308.67,417a1,1,0,0,1-.91-.58L290.81,379.7a1,1,0,0,1,.23-1.15l66-61.82-41-79.88a1.06,1.06,0,0,1-.1-.63l14.34-85.33a1,1,0,0,1,2,.33l-14.29,85,41.18,80.26a1,1,0,0,1-.2,1.18l-66,61.84,16.64,36.09a1,1,0,0,1-.48,1.33A1.06,1.06,0,0,1,308.67,417Z" style="fill:#fff"></path><circle cx="358.24" cy="316.94" r="10.17" transform="translate(-32.53 592.78) rotate(-76.72)" style="fill:#68A5DA"></circle><path d="M358.24,328.11a11.17,11.17,0,1,1,11.17-11.17A11.18,11.18,0,0,1,358.24,328.11Zm0-20.33a9.17,9.17,0,1,0,9.17,9.16A9.17,9.17,0,0,0,358.24,307.78Z" style="fill:#fff"></path><circle cx="291.72" cy="379.28" r="10.17" transform="matrix(0.16, -0.99, 0.99, 0.16, -129.39, 606.48)" style="fill:#68A5DA"></circle><path d="M291.72,390.44a11.17,11.17,0,1,1,11.17-11.16A11.17,11.17,0,0,1,291.72,390.44Zm0-20.33a9.17,9.17,0,1,0,9.17,9.17A9.18,9.18,0,0,0,291.72,370.11Z" style="fill:#fff"></path><circle cx="316.91" cy="236.39" r="10.17" style="fill:#68A5DA"></circle><path d="M316.91,247.56a11.17,11.17,0,1,1,11.17-11.17A11.18,11.18,0,0,1,316.91,247.56Zm0-20.34a9.17,9.17,0,1,0,9.17,9.17A9.18,9.18,0,0,0,316.91,227.22Z" style="fill:#fff"></path><circle cx="331.25" cy="151.06" r="10.17" transform="matrix(0.16, -0.99, 0.99, 0.16, 129.08, 453.83)" style="fill:#68A5DA"></circle><path d="M331.25,162.22a11.17,11.17,0,1,1,11.17-11.16A11.18,11.18,0,0,1,331.25,162.22Zm0-20.33a9.17,9.17,0,1,0,9.17,9.17A9.18,9.18,0,0,0,331.25,141.89Z" style="fill:#fff"></path><path d="M331.22,151.11a1,1,0,0,1-1-1V105.17a1,1,0,0,1,2,0v44.94A1,1,0,0,1,331.22,151.11Z" style="fill:#68A5DA"></path><path d="M290.89,123.86c9,3.06,17.92-3,26.89,0V108.58c-9-3-17.93,3.06-26.89,0Z" style="fill:#68A5DA"></path><path d="M300.71,109.15v15.27c5.69-.75,11.38-2.5,17.07-.56V108.58C312.09,106.64,306.4,108.39,300.71,109.15Z" style="opacity:0.2"></path><path d="M304.33,120.44c9,3.06,17.93-3,26.89,0V105.17c-9-3.06-17.92,3-26.89,0Z" style="fill:#68A5DA"></path></g><g id="freepik--Character--inject-147"><path d="M158.72,215.63l3.11,5-8.93,1.14a41.56,41.56,0,0,1,.85-4.9,2.3,2.3,0,0,1,2.71-1.74Z" style="fill:#7f3e3b"></path><polygon points="161.09 228.65 154.14 226.52 152.9 221.78 161.83 220.64 161.09 228.65" style="fill:#7f3e3b"></polygon><path d="M184.77,159.64c1.06-.33,2.34-.77,3.52-1.18s2.4-.86,3.59-1.32c2.37-.94,4.72-1.91,7-3a46,46,0,0,0,12-7.65,16.59,16.59,0,0,0,2-2.28l.2-.29c.05,0,.26-.51-.15.42a3.76,3.76,0,0,0-.2,1.67c0,.1,0,.2,0,.3l.05.21a1.46,1.46,0,0,0,.07.19l0,.12c.13.29.17.27.15.22a4.13,4.13,0,0,0-.24-.37,17.45,17.45,0,0,0-2.24-2.3c-.91-.8-1.87-1.62-2.87-2.42-4-3.2-8.41-6.34-12.68-9.49l2.6-4.87a104.39,104.39,0,0,1,15,7.15c1.22.72,2.45,1.46,3.67,2.32a26.88,26.88,0,0,1,3.76,3.09,9.54,9.54,0,0,1,2.16,3.18l.13.35.13.44c0,.15.07.28.11.45s.05.37.07.55a6.15,6.15,0,0,1-.32,2.66,6.31,6.31,0,0,1-.64,1.31l-.33.56a25.62,25.62,0,0,1-3,4c-4.42,4.72-9.48,7.79-14.58,10.43a84.75,84.75,0,0,1-7.82,3.48q-2,.78-4,1.47c-1.36.48-2.64.87-4.16,1.3Z" style="fill:#7f3e3b"></path><polygon points="188.83 125.74 183.51 129.22 191.13 130.97 193.08 125.59 188.83 125.74" style="fill:#7f3e3b"></polygon><path d="M199.61,128.42l-6.53-2.83-2,5.37s5.19,5.44,8.48,1.81Z" style="fill:#7f3e3b"></path><path d="M160.73,169.19c-2.46,4.46-4.95,9.07-7.32,13.62s-4.7,9.17-6.64,13.75c-.5,1.15-1,2.28-1.37,3.41l-.15.38a.4.4,0,0,0,0-.11c0-.07,0-.09,0-.08a.84.84,0,0,0,0,.51,8.23,8.23,0,0,0,1.07,2.38,27.14,27.14,0,0,0,1.92,2.76,103.38,103.38,0,0,0,10.41,10.82l-3.08,4.57a61.54,61.54,0,0,1-13.71-9.47,31,31,0,0,1-3.09-3.33,18.21,18.21,0,0,1-2.69-4.54,10.6,10.6,0,0,1-.76-3.34,8.91,8.91,0,0,1,.1-2,8.54,8.54,0,0,1,.23-1.07l.17-.56c.4-1.37.83-2.72,1.29-4a152.66,152.66,0,0,1,6.38-15c2.38-4.84,4.85-9.52,7.61-14.2Z" style="fill:#7f3e3b"></path><path d="M167.74,137.16c-.65,6.76.31,13.3-1.2,19.17,0,0,1.68,5.45,11.66,5.45,11,0,5-5.45,5-5.45-6.05-1.43-6.06-5.87-5.18-10.05Z" style="fill:#7f3e3b"></path><path d="M165.17,158.2c-.85-1.72-1.8-3.7,0-4.32,2-.68,12.72-1.37,16.49-.09a4,4,0,0,1,2.85,4.78Z" style="fill:#263238"></path><path d="M143.76,404.07a9.12,9.12,0,0,1-2-.72.18.18,0,0,1-.1-.18.19.19,0,0,1,.12-.17c.33-.11,3.19-1.13,4-.5a.6.6,0,0,1,.21.59,1.11,1.11,0,0,1-.59.9A2.38,2.38,0,0,1,143.76,404.07Zm-1.4-.86c1.28.55,2.31.72,2.82.45a.76.76,0,0,0,.39-.62c0-.15,0-.21-.07-.24C145.1,402.47,143.52,402.83,142.36,403.21Z" style="fill:#68A5DA"></path><path d="M141.81,403.37l-.1-.05a.19.19,0,0,1-.05-.19c0-.1.7-2.32,1.77-2.87a1,1,0,0,1,.85-.07h0a.61.61,0,0,1,.48.61c0,.91-1.95,2.3-2.86,2.56Zm2.26-2.85a.64.64,0,0,0-.46.08,4.52,4.52,0,0,0-1.45,2.26c.93-.44,2.21-1.53,2.22-2.07,0-.05,0-.16-.23-.24h0Z" style="fill:#68A5DA"></path><path d="M195.29,409.31a9.17,9.17,0,0,1-2.1-.29.19.19,0,0,1-.14-.15.18.18,0,0,1,.09-.19c.29-.19,2.88-1.78,3.77-1.32a.61.61,0,0,1,.32.54,1.12,1.12,0,0,1-.39,1A2.41,2.41,0,0,1,195.29,409.31Zm-1.55-.56c1.37.28,2.42.23,2.85-.14a.76.76,0,0,0,.26-.69c0-.15-.07-.2-.12-.22C196.27,407.46,194.8,408.15,193.74,408.75Z" style="fill:#68A5DA"></path><path d="M193.24,409a.23.23,0,0,1-.11,0,.21.21,0,0,1-.08-.18c0-.1.2-2.41,1.13-3.17a1.07,1.07,0,0,1,.81-.25h0a.62.62,0,0,1,.6.5c.17.9-1.43,2.65-2.26,3.1Zm1.62-3.26a.7.7,0,0,0-.44.17,4.62,4.62,0,0,0-.95,2.52c.83-.63,1.85-2,1.75-2.49,0-.05,0-.16-.28-.19h-.08Z" style="fill:#68A5DA"></path><polygon points="184.6 408.74 191.94 408.74 192.02 391.73 184.67 391.73 184.6 408.74" style="fill:#7f3e3b"></polygon><polygon points="133.13 401.98 140.15 403.34 145.99 386.66 138.97 385.3 133.13 401.98" style="fill:#7f3e3b"></polygon><path d="M141.1,402.36,133,400.64a.61.61,0,0,0-.69.36l-2.54,6.14a1.13,1.13,0,0,0,.83,1.51c2.83.55,4.23.68,7.78,1.44,2.18.46,6.64,1.65,9.66,2.29s3.93-2.28,2.74-2.82c-5.33-2.4-7.12-4.52-8.61-6.51A1.83,1.83,0,0,0,141.1,402.36Z" style="fill:#263238"></path><path d="M191.86,407.89h-8a.62.62,0,0,0-.61.5l-1.2,6.53a1.11,1.11,0,0,0,1.11,1.3c2.89,0,7.07-.21,10.71-.21,4.25,0,4.46.23,9.45.23,3,0,3.73-3.05,2.46-3.33-5.8-1.25-7-1.39-12.11-4.45A3.51,3.51,0,0,0,191.86,407.89Z" style="fill:#263238"></path><path d="M154.44,157.8c-6.76,1.85-14.75,20.54-14.75,20.54l15.52,8.77s3.63-6.62,7.21-14.82C166.17,163.7,165.72,154.73,154.44,157.8Z" style="fill:#263238"></path><path d="M198.35,190.81c0,8.2-.55,18.4-1.77,31.06h-39.3c-.48-5.7,1.87-32.35-3.72-59.27a4.52,4.52,0,0,1,3.76-5.42c2.38-.35,5.36-.71,8.29-.85a145.28,145.28,0,0,1,16.7,0,66.37,66.37,0,0,1,6.86,1,8.61,8.61,0,0,1,6.66,6.11,75.84,75.84,0,0,1,2.24,15.63C198.27,182.45,198.38,186.33,198.35,190.81Z" style="fill:#263238"></path><path d="M180.68,172c6.12,3.39,20.19-.48,20.19-.48l-.73-19.05a55.63,55.63,0,0,0-14.82,4C175.74,160.35,173.78,168.18,180.68,172Z" style="fill:#263238"></path><path d="M188.72,154.78s-2.84,1-3.89,1.31c-3.77,4.14-6.12,13.13-6.12,13.13l4.8,6.34C181.69,166.17,188.72,154.78,188.72,154.78Z" style="fill:#68A5DA"></path><path d="M188.72,154.78s-2.84,1-3.89,1.31c-3.77,4.14-6.12,13.13-6.12,13.13l4.8,6.34C181.69,166.17,188.72,154.78,188.72,154.78Z" style="opacity:0.2"></path><path d="M198.36,201.94c-3.75,2.89-11.2-3.83-11.2-3.83l.22,3.41c6.83,5.71,10.87,2.88,10.87,2.88A8.71,8.71,0,0,0,198.36,201.94Z" style="fill:#68A5DA"></path><path d="M198.36,201.94c-3.75,2.89-11.2-3.83-11.2-3.83l.22,3.41c6.83,5.71,10.87,2.88,10.87,2.88A8.71,8.71,0,0,0,198.36,201.94Z" style="opacity:0.2"></path><path d="M163.42,156.09a19.44,19.44,0,0,0-3.33.54A23.47,23.47,0,0,0,159,170.15l4.32-1.94S161.92,161.67,163.42,156.09Z" style="fill:#68A5DA"></path><path d="M163.42,156.09a19.44,19.44,0,0,0-3.33.54A23.47,23.47,0,0,0,159,170.15l4.32-1.94S161.92,161.67,163.42,156.09Z" style="opacity:0.2"></path><path d="M158.35,169.25c2.35-3.67,20.39-3.26,24.29-.25s8.61,35.83,2.84,39.5-32.39,5.42-32.58-2,5.87-20.32,5.15-24.58S155.16,174.25,158.35,169.25Z" style="fill:#68A5DA"></path><path d="M158.6,180.71s6.58,2.56,20.5-.55C176.39,181.58,162.09,184.81,158.6,180.71Z" style="fill:#263238;opacity:0.4"></path><path d="M166.55,179.75c.08.61-.26,1.11-.77,1.11a1.23,1.23,0,0,1-1.07-1.11c-.08-.61.26-1.11.76-1.11A1.23,1.23,0,0,1,166.55,179.75Z" style="fill:#263238;opacity:0.4"></path><path d="M181.88,209h-.07a.24.24,0,0,1-.17-.31c2.12-7,1.86-16.54-.78-28.49-1.1-5,.15-9.76.81-10.75a.25.25,0,1,1,.42.28c-.68,1-1.76,5.78-.75,10.36,2.67,12,2.93,21.71.78,28.74A.26.26,0,0,1,181.88,209Z" style="fill:#263238;opacity:0.4"></path><g style="opacity:0.2"><polygon points="192.02 391.73 191.98 400.5 184.63 400.5 184.67 391.73 192.02 391.73"></polygon><polygon points="138.97 385.3 145.99 386.66 142.97 395.26 135.95 393.9 138.97 385.3"></polygon></g><path d="M182.64,221.87S176.47,278,172.7,299c-4.12,23-25.47,95.33-25.47,95.33l-13.16-2.8s14.7-67.63,16.68-90.44c2.14-24.75,6.53-79.26,6.53-79.26Z" style="fill:#68A5DA"></path><path d="M150.18,389.93s-2.24,4.81-2.24,4.81l-14.81-3.15,1.06-4.49Z" style="fill:#263238"></path><path d="M178.14,241.87c-9.56,1.89-7.16,37.84-5.28,56.33,2.27-13.07,5.37-38.22,7.46-56.07A3.33,3.33,0,0,0,178.14,241.87Z" style="opacity:0.2"></path><path d="M196.58,221.87s3.13,54.93,3.2,77.33c.06,23.3-5.13,99.6-5.13,99.6H182.21s-3.35-74.94-4.79-97.82c-1.57-25-6.67-79.11-6.67-79.11Z" style="fill:#68A5DA"></path><path d="M196.85,393.84c.06,0-.5,5.17-.5,5.17H181.21l-.58-4.61Z" style="fill:#263238"></path><path d="M184.42,130.16c.08.59.46,1,.85,1s.63-.54.55-1.13-.47-1-.85-1S184.34,129.57,184.42,130.16Z" style="fill:#263238"></path><path d="M184.83,131.2a22.15,22.15,0,0,0,3.53,4.73,3.38,3.38,0,0,1-2.75.82Z" style="fill:#630f0f"></path><path d="M184.66,126.33a.38.38,0,0,0,.22-.24.35.35,0,0,0-.25-.43,3.44,3.44,0,0,0-3,.86.35.35,0,1,0,.47.51,2.7,2.7,0,0,1,2.39-.69A.38.38,0,0,0,184.66,126.33Z" style="fill:#263238"></path><path d="M164.58,130.93c1.47,7.17,2,11.42,6.14,14.75a9.49,9.49,0,0,0,15.47-6.59c.64-6.64-1.87-17.24-9.36-19.39A9.59,9.59,0,0,0,164.58,130.93Z" style="fill:#7f3e3b"></path><path d="M180,132c-1.22,3.78-8,11-10.41,11.56s-9-5.14-9.59-8.12c-2.4-.27-5-5.06-1.36-6.94-2.7-1.37-2-8.52,3.49-8-3.34-3.22.67-8.67,5.23-7.22,1.09-2.78,7.25-4.56,10.8-.28,2.77-1.56,7.62,1.58,7.26,6.28a7.61,7.61,0,0,1-5.34,6.31C181.27,127,180,132,180,132Z" style="fill:#263238"></path><path d="M176.37,131a8.66,8.66,0,0,0,2.77,4.62c1.85,1.58,3.33.29,3.29-1.88,0-2-1.05-5.12-3.13-5.87S175.91,128.85,176.37,131Z" style="fill:#7f3e3b"></path></g></svg>